<?xml version="1.0" encoding="utf-8"?>
<!-- Generator: Adobe Illustrator 24.1.0, SVG Export Plug-In . SVG Version: 6.00 Build 0)  -->
<svg version="1.1" id="圖層_1" xmlns="http://www.w3.org/2000/svg" xmlns:xlink="http://www.w3.org/1999/xlink" x="0px" y="0px"
	 viewBox="0 0 128 128" style="enable-background:new 0 0 128 128;" xml:space="preserve">
<style type="text/css">
	.st0{fill:#FFFFFF;stroke:#000000;stroke-width:3;stroke-linecap:round;stroke-linejoin:round;stroke-miterlimit:10;}
	.st1{fill:#FFFFFF;stroke:#000000;stroke-width:3;stroke-miterlimit:10;}
	.st2{fill:none;stroke:#000000;stroke-width:3;stroke-linecap:round;stroke-linejoin:round;stroke-miterlimit:10;}
</style>
<g>
	<path d="M57.85,4.34c0,0,0.01,0,0.01,0c2.91,0.72,4.75,3.36,4.5,6.36c-0.04,0.49,0.17,0.95,0.52,1.3c2.71,2.66,3.91,5.84,3.67,9.63
		c-0.03,0.46,0.23,1.07,0.57,1.41c1.74,1.81,2.28,4.27,1.33,6.52c-0.94,2.21-3.08,3.6-5.58,3.49c-0.6-0.03-1.16,0.29-1.44,0.82
		c-1.25,2.39-2.55,4.76-3.91,7.29c2.45,0.83,4.08,2.12,4.66,4.43c0.57,2.27-0.17,4.16-1.76,5.85c1.56,1.06,3.26,1.56,5,1.56
		c2.7,0,5.41-0.22,8.11-0.44c0.35-0.03,0.79-0.55,0.95-0.95c0.75-1.8,1.31-3.68,2.15-5.43c0.49-1.02,1.27-1.95,2.1-2.74
		c1.98-1.87,4.33-2.56,6.94-1.47c2.58,1.08,3.6,3.25,3.8,5.9c0.05,0.71,0.01,1.43,0.01,2.28c1.55-0.1,3.14-0.22,4.73-0.31
		c0.49-0.03,0.98-0.04,1.47-0.04c1.82,0.03,3.39-0.05,4.71-1.91c1.33-1.88,3.77-2.04,6-1.22c1.92,0.71,3.17,2.47,3.57,4.47
		c0.13,0.66,0.45,0.97,1.08,1.23c2.84,1.14,5.39,2.77,7.69,4.79c0.28,0.24,0.77,0.46,1.11,0.39c3.83-0.73,6.15,0.54,7.46,4.17
		c0.03,0.07,0.09,0.72,0.14,0.78l0,0.69c0,0.72-0.19,1.44-0.56,2.06c-0.35,0.6-0.7,1.2-1.02,1.82c-0.2,0.4-0.42,0.94-0.32,1.33
		c0.85,3.33,1.02,6.66,0.36,10.04c-0.05,0.26-0.01,0.67,0.11,0.91c0.15,0.32,0.41,0.64,0.69,0.97c0.85,0.98,1.06,2.31,0.87,3.59
		c-0.01,0.09-0.02,0.17-0.01,0.25c-0.84,2.4-2.19,4.27-4.83,4.75c-0.54,0.1-1.16,0.22-1.66,0.06c-1.17-0.37-1.97,0.04-2.91,0.73
		c-4,2.97-8.6,4.68-13.34,6.06c-0.94,0.27-1.68-0.01-2.03-0.96c-0.31-0.85,0.18-1.64,1.23-1.97c4.12-1.29,8.2-2.69,11.79-5.18
		c0.39-0.27,0.76-0.56,1.13-0.84c-2.8-4.57,0.3-10.04,6-9.37c0.59-2.71,0.34-5.39-0.38-8.03c-0.06-0.22-0.41-0.48-0.65-0.51
		c-5.37-0.78-7.33-4.25-5.07-9.2c-2.13-2.06-4.64-3.56-7.34-4.63c-0.82,0.7-1.52,1.5-2.39,2.01c-3.14,1.85-7.16,0.31-8.28-3.17
		c-0.28-0.86-0.65-1.14-1.49-1.08c-2.71,0.19-5.42,0.3-8.13,0.54c-0.41,0.04-0.92,0.57-1.12,0.99C81.78,67.63,75.5,80.91,69.23,94.2
		c-4.62,9.78-9.23,19.57-13.86,29.35c-0.22,0.46-0.59,0.84-0.92,1.24c-0.4,0.09-0.74,0.17-1.14,0.26c-1.22-0.65-1.21-1.6-0.85-2.77
		c5.78-18.48,11.54-36.96,17.3-55.44c1.03-3.32,2.07-6.63,3.1-9.95c0.1-0.33,0.18-0.67,0.27-1.02c-2.1,0.1-4.13,0.26-6.15,0.27
		c-3.48,0.01-6.74-0.73-9.51-3.02c-0.27-0.22-0.72-0.29-1.09-0.31c-2.62-0.14-4.78-1.85-5.42-4.32c-0.65-2.53,0.46-5.11,2.7-6.52
		c0.47-0.3,0.84-0.87,1.1-1.39c1.33-2.68,2.57-5.39,3.92-8.05c0.32-0.63,0.43-1-0.03-1.62c-2.7-3.55-0.68-8.72,3.74-9.32
		c0.94-0.13,1.15-0.49,1.12-1.36c-0.09-2.36-1.09-4.54-2.84-5.97c-3.55,2.81-8.2,1.73-9.88-2.94c-7.19,0.91-14.07,3.02-20.88,5.75
		c0.09,0.38,0.14,0.72,0.24,1.05c7.03,23.15,14.06,46.29,21.09,69.44c0.07,0.23,0.13,0.46,0.2,0.69c0.29,0.94,0.06,1.69-0.89,2.06
		c-1.11,0.43-1.78-0.3-2.17-1.33c-0.49-1.3-0.97-2.6-1.61-3.83C36.52,65.3,27.13,45.05,18.48,24.46c-0.18-0.42-0.37-0.77-0.65-1.32
		c-0.44,0.25-0.87,0.44-1.24,0.71c-3.53,2.48-7.05,4.97-10.56,7.48C5,32.07,4.11,32.15,3.49,31.42C2.85,30.66,3,29.74,4.06,28.97
		c4.05-2.98,8.14-5.91,12.22-8.86c-0.39-1.39-1.08-2.97-1.21-4.6c-0.13-1.58-0.02-3.33,0.55-4.79c1.6-4.13,6.74-5.24,9.85-2.11
		c1.48,1.49,2.5,3.44,3.84,5.34c0.93-0.34,2.19-0.82,3.45-1.27c5.69-2.02,11.48-3.69,17.51-4.37c0.31-0.03,0.76-0.21,0.86-0.45
		c0.83-1.97,2.34-3,4.21-3.56C56.17,3.95,57.17,4.25,57.85,4.34z M41.3,66.36c0.09-0.02,0.17-0.05,0.26-0.07
		c-4.84-15.94-9.69-31.88-14.57-47.95l-2.91,1.36c-0.75,0.35-1.64,0.07-2.05-0.65l-0.17-0.29c-0.33-0.58-0.1-1.31,0.49-1.6
		l3.93-1.95c-0.85-1.39-1.53-2.74-2.44-3.92c-0.84-1.09-2.01-1.72-3.49-1.2c-1.49,0.53-2.28,1.66-2.33,3.17
		c-0.04,1.14,0.02,2.37,0.42,3.41c0.95,2.49,2.1,4.91,3.22,7.33c4.86,10.51,9.73,21.01,14.6,31.51
		C37.94,59.13,39.62,62.74,41.3,66.36z M62.37,100.85c0.07,0.03,0.15,0.06,0.22,0.1c0.16-0.31,0.34-0.62,0.49-0.94
		c3.22-6.82,6.43-13.64,9.66-20.46c4.08-8.62,8.19-17.22,12.26-25.85c0.85-1.81,1.58-3.68,1.4-5.75c-0.12-1.39-0.58-2.6-1.98-3.17
		c-1.35-0.55-2.51-0.07-3.51,0.86c-1.79,1.67-2.65,3.81-3.21,6.33c1.04-0.16,2.22-0.57,3.41-0.99c1.16-0.4,2.19,0.7,1.86,1.88
		c0,0.01,0,0.01,0,0.02c-0.3,1.14-0.96,1.7-2.18,1.76c-1.07,0.05-2.12,0.41-3.19,0.48c-0.84,0.06-1.11,0.47-1.33,1.2
		c-3.48,11.24-7,22.48-10.5,33.71C64.62,93.63,63.5,97.24,62.37,100.85z M60.44,27.33c0.01,1.47,1.18,2.65,2.64,2.67
		c1.51,0.02,2.72-1.19,2.72-2.71c0-1.54-1.22-2.78-2.7-2.75C61.59,24.56,60.43,25.78,60.44,27.33z M59.28,10.08
		c0.04-1.49-1.19-2.79-2.67-2.83c-1.42-0.04-2.79,1.3-2.8,2.73c-0.01,1.4,1.23,2.69,2.64,2.74C57.95,12.77,59.24,11.57,59.28,10.08z
		 M56.56,49.72c1.52,0,2.74-1.22,2.72-2.73c-0.02-1.45-1.21-2.66-2.66-2.69c-1.47-0.03-2.79,1.23-2.81,2.69
		C53.79,48.44,55.08,49.72,56.56,49.72z M104.32,54.76c1.51-0.02,2.73-1.29,2.68-2.78c-0.05-1.44-1.28-2.64-2.71-2.65
		c-1.48-0.01-2.76,1.27-2.75,2.74C101.54,53.55,102.82,54.78,104.32,54.76z M124.36,83.3c0.02-1.53-1.15-2.75-2.67-2.77
		c-1.51-0.02-2.76,1.21-2.75,2.7c0.01,1.49,1.26,2.73,2.75,2.72C123.12,85.95,124.33,84.74,124.36,83.3z M124.36,63.04
		c-0.02-1.51-1.27-2.71-2.78-2.67c-1.44,0.04-2.63,1.26-2.64,2.7c-0.01,1.48,1.25,2.73,2.74,2.72
		C123.19,65.78,124.38,64.57,124.36,63.04z"/>
	<path d="M41.32,109.96c0,3.09-2.39,5.47-5.47,5.44c-3-0.02-5.37-2.44-5.37-5.45c0.01-3.09,2.41-5.46,5.5-5.43
		C39.03,104.55,41.32,106.89,41.32,109.96z M33.56,110.01c0.03,1.3,1.08,2.32,2.38,2.31c1.32-0.01,2.33-1.04,2.33-2.36
		c0-1.35-1.12-2.45-2.45-2.4C34.56,107.61,33.54,108.71,33.56,110.01z"/>
	<path d="M17.57,114.61c-3.16,0-6.2-0.6-9.17-1.62c-1.29-0.44-1.77-1.23-1.42-2.21c0.32-0.89,1.15-1.14,2.43-0.69
		c3.88,1.35,7.85,1.73,11.92,1.12c1.05-0.16,1.83,0.37,1.95,1.28c0.12,0.92-0.45,1.62-1.53,1.74
		C20.36,114.4,18.96,114.49,17.57,114.61z"/>
	<path d="M7.89,56.95c0-0.8-0.04-1.6,0.01-2.39c0.05-0.95,0.64-1.48,1.56-1.45c0.87,0.02,1.41,0.58,1.44,1.46
		c0.06,1.59,0.11,3.19,0.08,4.79c-0.02,0.97-0.6,1.6-1.59,1.57c-0.92-0.03-1.44-0.63-1.46-1.57c-0.02-0.8,0-1.6,0-2.4
		C7.91,56.95,7.9,56.95,7.89,56.95z"/>
	<path d="M11.08,69.24c0,0.76,0.02,1.52,0,2.27c-0.03,0.95-0.53,1.51-1.48,1.53c-0.94,0.02-1.51-0.51-1.54-1.46
		c-0.06-1.55-0.1-3.11-0.08-4.66c0.01-0.95,0.47-1.61,1.5-1.67c0.92-0.05,1.53,0.63,1.56,1.71c0.01,0.4,0,0.8,0,1.2
		c0,0.36,0,0.72,0,1.08C11.05,69.24,11.06,69.24,11.08,69.24z"/>
	<path d="M15.1,64.56c-0.68,0-1.35,0.02-2.03-0.01c-0.84-0.04-1.32-0.53-1.41-1.34c-0.09-0.8,0.26-1.53,1.09-1.59
		c1.57-0.12,3.17-0.16,4.74,0c0.39,0.04,0.89,0.95,0.96,1.51c0.11,0.81-0.53,1.3-1.33,1.39c-0.67,0.07-1.35,0.01-2.02,0.01
		C15.1,64.55,15.1,64.55,15.1,64.56z"/>
	<path d="M3.68,64.66c-0.64,0-1.28,0.05-1.92-0.01c-0.83-0.09-1.3-0.61-1.31-1.44c-0.01-0.89,0.47-1.48,1.35-1.53
		c1.39-0.07,2.81-0.14,4.18,0.03c0.48,0.06,1.1,0.75,1.26,1.27c0.24,0.75-0.23,1.44-1.06,1.58c-0.82,0.14-1.67,0.11-2.5,0.16
		C3.68,64.7,3.68,64.68,3.68,64.66z"/>
	<path d="M113.39,32.08c0,0.8,0.03,1.6-0.01,2.4c-0.05,0.94-0.6,1.51-1.53,1.49c-0.92-0.02-1.46-0.57-1.49-1.53
		c-0.04-1.48-0.08-2.95-0.07-4.43c0.01-1.2,0.62-1.89,1.55-1.88c0.95,0.02,1.46,0.67,1.47,1.92c0.01,0.68,0,1.36,0,2.03
		C113.34,32.08,113.37,32.08,113.39,32.08z"/>
	<path d="M113.28,20.05c0,0.76,0.03,1.52-0.01,2.27c-0.04,0.87-0.49,1.41-1.4,1.47c-0.97,0.06-1.58-0.46-1.63-1.37
		c-0.09-1.67-0.1-3.35-0.03-5.02c0.03-0.85,0.59-1.37,1.51-1.36c0.91,0.01,1.43,0.5,1.5,1.37c0.07,0.87,0.01,1.75,0.01,2.63
		C113.25,20.05,113.26,20.05,113.28,20.05z"/>
	<path d="M106.14,27.6c-0.64,0-1.27,0.03-1.91-0.01c-0.87-0.06-1.42-0.56-1.48-1.42c-0.06-0.94,0.51-1.54,1.41-1.61
		c1.34-0.1,2.7-0.11,4.05-0.04c0.91,0.05,1.46,0.66,1.41,1.6c-0.04,0.87-0.58,1.38-1.46,1.43c-0.67,0.04-1.35,0.01-2.03,0.01
		C106.14,27.57,106.14,27.58,106.14,27.6z"/>
	<path d="M117.32,27.47c-0.64,0-1.27,0.04-1.91-0.01c-0.93-0.07-1.46-0.59-1.44-1.55c0.02-0.89,0.53-1.41,1.41-1.45
		c1.31-0.06,2.62-0.09,3.93-0.06c0.92,0.02,1.51,0.53,1.5,1.49c-0.01,0.92-0.49,1.48-1.47,1.51c-0.67,0.02-1.35,0.07-2.02,0.1
		C117.32,27.49,117.32,27.48,117.32,27.47z"/>
</g>
</svg>
