<?xml version="1.0" encoding="utf-8"?>
<!-- Generator: Adobe Illustrator 24.1.0, SVG Export Plug-In . SVG Version: 6.00 Build 0)  -->
<svg version="1.1" id="圖層_1" xmlns="http://www.w3.org/2000/svg" xmlns:xlink="http://www.w3.org/1999/xlink" x="0px" y="0px"
	 viewBox="0 0 128 128" style="enable-background:new 0 0 128 128;" xml:space="preserve">
<style type="text/css">
	.st0{fill:none;stroke:#000000;stroke-width:3;stroke-linecap:round;stroke-linejoin:round;stroke-miterlimit:10;}
</style>
<g>
	<line class="st0" x1="102.2" y1="16.7" x2="106.5" y2="16.6"/>
	<line class="st0" x1="110.7" y1="25.1" x2="110.7" y2="20.3"/>
	<line class="st0" x1="119.1" y1="16.5" x2="114.7" y2="16.6"/>
	<line class="st0" x1="110.5" y1="8.1" x2="110.6" y2="12.9"/>
</g>
<g>
	<line class="st0" x1="18.9" y1="113.3" x2="22.9" y2="113.2"/>
	<line class="st0" x1="26.7" y1="121.6" x2="26.7" y2="116.9"/>
	<line class="st0" x1="34.4" y1="113.1" x2="30.4" y2="113.1"/>
	<line class="st0" x1="26.6" y1="104.7" x2="26.6" y2="109.5"/>
</g>
<g>
	<path d="M115.5,75.4c-1.8-1.2-4-1.7-6.2-1.2c-2.2,0.5-4.1,1.8-5.4,3.7l-2.1,3l1.2-4.7l2.1-8.6l4.6-18.5c1.1-4.4-1.4-8.8-5.5-9.9
		c-1.6-0.4-3.2-0.2-4.7,0.4l0.5-2.1c1.1-4.4-1.3-8.8-5.5-9.8c-4.1-1-8.3,1.7-9.4,6.2l0,0.1c-1-1.2-2.3-2.2-3.9-2.6
		c-2.8-0.7-5.6,0.4-7.5,2.5L72,22.3c-0.6-4.5-4.6-7.7-8.7-7.1c-1.6,0.2-3.1,1-4.2,2.1l-0.3-1.9c-0.3-2.1-1.4-4.1-3-5.4
		c-1.7-1.4-3.7-2-5.8-1.7c-1.6,0.2-3.1,1-4.2,2.1l0-0.1c-0.6-4.5-4.6-7.7-8.7-7.1C32.9,3.9,30,8,30.7,12.5l0.3,2.1
		c-1.4-0.8-3-1.1-4.6-0.9c-4.2,0.6-7.1,4.7-6.5,9.2l2.7,18.9l1.2,8.8l0.7,4.8l-1.8-3.2c-1.1-2-2.9-3.5-5-4.2
		c-2.2-0.7-4.4-0.5-6.3,0.5c-3.9,2.2-5.2,7.3-2.8,11.5l5.9,10.7l0.5,0.8c0,0,0,0.1,0,0.1l2.5,4.5c1.6,4,5.3,11.4,12.1,17
		c5.2,4.4,10.9,6.7,17.2,6.9c0.6,2.9,1.6,5.8,3.1,8.4c3.7,6.6,9.8,11.2,17.2,13.1l2.6,0.6c2.4,0.6,4.7,0.9,7.1,0.9
		c5.6,0,11-1.7,16.2-5.2c7.3-4.9,11.8-11.9,13.8-15.7l2.9-4.1c0,0,0,0,0,0c0,0,0.1-0.1,0.1-0.2l0.5-0.8l7-10
		C119.9,83.2,119.2,78,115.5,75.4z M63.7,18.4c2.4-0.3,4.7,1.6,5.1,4.3l1.5,10.8l0.2,1.6l0.2,1.6l0.4,2.6c-1-1.2-2.3-2-3.8-2.4
		c-1.8-0.5-3.7-0.2-5.4,0.8l-0.2-1.3l-0.2-1.6h0L60,24c0,0,0-0.1,0-0.1C59.7,21.2,61.3,18.8,63.7,18.4z M20.4,74.8
		c0-0.1-0.1-0.1-0.1-0.2L17.7,70h0l-0.4-0.7h0l0-0.1l-5.9-10.7c-1.5-2.6-0.8-5.8,1.6-7.1c1.1-0.6,2.4-0.7,3.7-0.3
		c1.3,0.5,2.5,1.4,3.2,2.7l6,10.9l0,0c0,0,0,0.1,0.1,0.1c0,0,0,0.1,0.1,0.1c0,0,0,0.1,0.1,0.1c0.1,0.1,0.1,0.1,0.2,0.2c0,0,0,0,0,0
		c0.1,0.1,0.2,0.2,0.3,0.2c0,0,0,0,0,0c0.1,0.1,0.2,0.1,0.4,0.1c0,0,0,0,0,0c0.1,0,0.2,0,0.2,0c0.1,0,0.1,0,0.2,0h0
		c0.1,0,0.1,0,0.2,0c0.1,0,0.1,0,0.2-0.1c0.1,0,0.1-0.1,0.2-0.1c0.1,0,0.1-0.1,0.2-0.1c0.1,0,0.1-0.1,0.2-0.1
		c0.1-0.1,0.2-0.2,0.3-0.3c0-0.1,0.1-0.2,0.1-0.2c0-0.1,0-0.1,0.1-0.2c0,0,0-0.1,0-0.1c0-0.1,0-0.2,0-0.2c0-0.1,0-0.2,0-0.2
		c0,0,0,0,0,0L27,50.3c0,0,0-0.1,0-0.1v0l-1-7.1l-0.5-3.2l-2.4-17.3c-0.4-2.7,1.3-5.2,3.7-5.6c1.1-0.2,2.3,0.2,3.3,1
		c1,0.8,1.7,2,1.8,3.4l2.4,17.4l0.2,1.6l0.2,1.6l1,7.1c0.1,0.8,0.8,1.4,1.6,1.4c0.1,0,0.2,0,0.2,0c0.9-0.1,1.5-0.9,1.4-1.8l-1-7.1
		l-0.2-1.6l-0.2-1.6l-2.4-17.3l-1.2-8.8c-0.4-2.7,1.3-5.2,3.7-5.6c2.4-0.3,4.7,1.6,5.1,4.3l1,6.8l2.7,19.4l0.2,1.6l0.2,1.6l1,7.1
		c0.1,0.8,0.8,1.4,1.6,1.4c0.1,0,0.2,0,0.2,0c0.9-0.1,1.5-0.9,1.4-1.8l-1-7.1l-0.2-1.6l-0.2-1.6h0l-2.7-19.3
		c-0.4-2.7,1.3-5.2,3.7-5.6c1.1-0.2,2.3,0.2,3.3,1c1,0.8,1.7,2,1.9,3.4l1.2,8.5c0,0,0,0.1,0,0.1l1.5,10.8l0.2,1.6l0.2,1.6l0.3,2
		c-0.5,0.8-0.9,1.7-1.2,2.7l-3,12.1l-2.1,8.6c0,0,0,0,0,0l-5.7,22.8c-0.8,3.4-1.1,6.8-0.8,10.2C37,96,26.6,90,20.4,74.8z
		 M114.5,85.3l-6.9,10l0,0l0,0l-0.5,0.7l-3.1,4.4c0,0.1-0.1,0.1-0.1,0.2c-9.3,17.4-23.4,21-33.4,18.5l-2.6-0.6
		c-6.5-1.6-11.9-5.7-15.1-11.5c-1.2-2.1-2.1-4.4-2.6-6.9c-0.1-0.5-0.2-1.1-0.3-1.6c-0.1-0.5-0.2-1.1-0.2-1.6
		c-0.3-3.1-0.1-6.3,0.7-9.5l5.7-22.8L58,56l0.4-1.6l1.9-7.8l0.3-1.1l0.5-2c0.3-0.9,0.7-1.6,1.3-2.2c0.2-0.2,0.5-0.4,0.8-0.6
		c1-0.7,2.2-0.9,3.3-0.6c2.4,0.6,3.8,3.3,3.1,5.9L67,56.6h0l-0.4,1.6l-0.4,1.6l-1.7,7c-0.2,0.9,0.3,1.7,1.2,2c0.1,0,0.3,0,0.4,0
		c0.7,0,1.4-0.5,1.6-1.2l1.7-7l0.4-1.6l0.4-1.6l2.2-9l0.4-1.5l0.7-2.7l1-4.2l0.4-1.5c0.7-2.7,3.1-4.4,5.5-3.8
		c2.3,0.6,3.7,3.2,3.1,5.8l-4.7,19.1l-0.4,1.6L78,62.6h0l-0.2,0.8l-1.1,4.2l-0.5,2c-0.2,0.7,0.1,1.4,0.7,1.8
		c0.1,0.1,0.3,0.2,0.5,0.2c0.1,0,0.3,0,0.4,0c0.3,0,0.5-0.1,0.8-0.2c0.4-0.2,0.7-0.6,0.8-1l1.7-7l0.4-1.6h0l0.4-1.6h0l4.7-19
		l1.6-6.6c0.7-2.7,3.1-4.4,5.5-3.8c2.4,0.6,3.8,3.3,3.1,5.9l-2.1,8.6l-4.2,17L90.2,64l-0.4,1.6l-1.7,7c-0.2,0.9,0.3,1.7,1.2,2
		c0.1,0,0.3,0,0.4,0c0.7,0,1.4-0.5,1.6-1.2l1.7-7l0.4-1.6l0.4-1.6l4.2-17c0.3-1.3,1.1-2.4,2.2-3.2c1-0.7,2.2-0.9,3.3-0.6
		c2.4,0.6,3.8,3.3,3.1,5.9l-4.2,17l-0.4,1.6l-0.4,1.6l-1.7,7l-3.3,13.1c0,0,0,0.1,0,0.1c0,0.1,0,0.1,0,0.2c0,0.3,0,0.6,0.2,0.9
		c0,0,0,0,0,0c0,0.1,0.1,0.1,0.1,0.2c0.1,0.1,0.2,0.3,0.4,0.4c0.1,0.1,0.1,0.1,0.2,0.1c0.1,0,0.2,0.1,0.2,0.1c0,0,0.1,0,0.1,0
		c0.1,0,0.1,0,0.2,0c0.1,0,0.2,0,0.2,0c0.1,0,0.2,0,0.3,0c0.1,0,0.2,0,0.2-0.1c0.1,0,0.1-0.1,0.2-0.1c0.1,0,0.2-0.1,0.2-0.2
		c0.1-0.1,0.2-0.2,0.3-0.3c0,0,0-0.1,0.1-0.1l0,0l0,0l7.1-10.2c0.8-1.2,2.1-2,3.4-2.3c1.3-0.3,2.6-0.1,3.7,0.7
		C115.8,79.6,116.2,82.8,114.5,85.3z"/>
</g>
<line class="st0" x1="108" y1="114.1" x2="113.6" y2="121"/>
<line class="st0" x1="114.7" y1="108.6" x2="120.8" y2="109.7"/>
<circle class="st0" cx="10.6" cy="95.2" r="3.6"/>
</svg>
