<?xml version="1.0" encoding="utf-8"?>
<!-- Generator: Adobe Illustrator 24.1.0, SVG Export Plug-In . SVG Version: 6.00 Build 0)  -->
<svg version="1.1" id="圖層_1" xmlns="http://www.w3.org/2000/svg" xmlns:xlink="http://www.w3.org/1999/xlink" x="0px" y="0px"
	 viewBox="0 0 128 128" style="enable-background:new 0 0 128 128;" xml:space="preserve">
<style type="text/css">
	.st0{fill:#FFFFFF;stroke:#000000;stroke-width:3;stroke-linecap:round;stroke-linejoin:round;stroke-miterlimit:10;}
	.st1{fill:#FFFFFF;stroke:#000000;stroke-width:3;stroke-miterlimit:10;}
	.st2{fill:none;stroke:#000000;stroke-width:3;stroke-linecap:round;stroke-linejoin:round;stroke-miterlimit:10;}
</style>
<g>
	<path d="M122.16,78.69c0-0.01,0-0.01,0-0.02c0-0.01,0-0.01,0-0.02l-0.02-18.71c0-1.57-0.64-3-1.67-4.03
		c-1.03-1.03-2.45-1.67-4.03-1.67h-2.86v-1.87c0-0.95-0.38-1.86-1.05-2.52c-0.67-0.68-1.57-1.05-2.52-1.05c-0.01,0-0.01,0-0.01,0
		l-7.47,0.01c-0.25,0-0.51,0.03-0.75,0.08l-3.11-31.73c-0.04-0.41-0.24-0.77-0.55-1.02c-0.31-0.26-0.72-0.39-1.12-0.34L66.3,18.81
		l-3.55-8.19c-0.33-0.77-1.23-1.13-2.01-0.79L5.43,33.79c-0.77,0.33-1.13,1.23-0.79,2l25.71,59.38l0.02,17.44
		c0,3.14,2.55,5.69,5.7,5.69c0,0,0,0,0.01,0l80.42-0.07c1.52,0,2.95-0.59,4.03-1.67c1.07-1.07,1.66-2.5,1.66-4.03L122.16,78.69z
		 M36.91,36.46l2.94-1.28L43,33.83v-0.01l2.23-0.96l14.47-6.27l2.02,4.65l0.64,1.47l0.63,1.46l8.71,20.12L59.16,54.3v-1.22
		c0-1.13-0.44-2.19-1.24-2.99c-0.8-0.79-1.87-1.24-2.99-1.24l-7.62,0.01h-3.05l-3.07,0.01h-0.83c-0.23,0-0.47,0.02-0.69,0.06
		c-0.53,0.08-1.02,0.26-1.48,0.55c-0.29,0.16-0.57,0.38-0.82,0.63c-0.79,0.8-1.24,1.87-1.24,2.99v1.22h-0.11
		c-3.14,0.01-5.7,2.57-5.7,5.71l0.01,12.1L18.36,44.49L36.91,36.46z M81.66,54.28l-9.11-21.04l18.32-1.79l2.24,22.82L81.66,54.28z
		 M41.48,51.91l3.07-0.01h3.05l7.33-0.01c0.31,0,0.62,0.12,0.84,0.35c0.22,0.22,0.34,0.52,0.34,0.83v1.22l-8.27,0.01h-3.06
		l-1.96,0.01h-1.11h-2.55V53.1c0-0.31,0.12-0.62,0.35-0.84c0.13-0.13,0.27-0.22,0.45-0.27c0.12-0.05,0.25-0.07,0.39-0.07H41.48z
		 M58.25,96.48h-0.01c-0.06-0.15-0.12-0.3-0.18-0.46c-0.14-0.33-0.26-0.68-0.38-1.02c-0.05-0.13-0.09-0.26-0.13-0.41v-0.01
		c-0.16-0.48-0.29-0.97-0.4-1.48c-0.32-1.39-0.5-2.84-0.5-4.32c0-0.88,0.06-1.76,0.17-2.63c0.07-0.53,0.16-1.04,0.27-1.55
		c0.09-0.45,0.2-0.88,0.33-1.31l0.07-0.26c0.17-0.58,0.38-1.14,0.6-1.68c0.24-0.61,0.52-1.2,0.82-1.76
		c0.01-0.01,0.02-0.02,0.02-0.03c0.03-0.04,0.06-0.09,0.08-0.14c0.03-0.05,0.06-0.11,0.09-0.16c0.86-1.57,1.97-3.02,3.26-4.33
		c3.7-3.71,8.62-5.75,13.85-5.76c0.01,0,0.01,0,0.02,0c0.64,0,1.28,0.03,1.92,0.09c0.6,0.06,1.19,0.14,1.77,0.25
		c0.63,0.12,1.25,0.26,1.86,0.46c1.42,0.42,2.8,0.99,4.09,1.73c0.81,0.45,1.58,0.96,2.32,1.55c0.66,0.5,1.29,1.04,1.89,1.64
		c0.31,0.31,0.63,0.64,0.92,0.98c0,0,0.01,0.01,0.01,0.02c0.93,1.05,1.73,2.19,2.39,3.4c0.03,0.07,0.07,0.14,0.11,0.21h0.01
		c0,0.02,0.01,0.03,0.02,0.04c0.24,0.47,0.48,0.94,0.68,1.42c0.04,0.09,0.08,0.18,0.12,0.27c0.16,0.4,0.31,0.79,0.45,1.2
		c0.68,2.01,1.03,4.13,1.04,6.31c0,0.86-0.05,1.7-0.17,2.53c-0.06,0.53-0.15,1.04-0.25,1.55c-0.11,0.54-0.25,1.05-0.41,1.57
		c-2.43,8.06-9.92,13.95-18.75,13.96c-0.01,0-0.01,0-0.02,0c-7.49,0-14.02-4.23-17.32-10.42C58.69,97.46,58.45,96.97,58.25,96.48z
		 M119.1,59.94l0.02,17.21l-14.57,0.02h-3.07l-3.06,0.01h-2.7c-0.13-0.23-0.27-0.47-0.43-0.69c-0.87-1.34-1.89-2.6-3.04-3.75
		c-1.22-1.21-2.54-2.27-3.95-3.15c-0.71-0.46-1.44-0.86-2.19-1.22c-0.66-0.32-1.34-0.62-2.03-0.86c-1.23-0.46-2.48-0.8-3.78-1.02
		c-0.59-0.11-1.18-0.19-1.76-0.25c-0.57-0.05-1.14-0.09-1.7-0.09c-0.18-0.02-0.38-0.02-0.57-0.02c-0.01,0-0.01,0-0.02,0
		c-6.04,0.01-11.73,2.37-16,6.65c-1.35,1.35-2.5,2.84-3.46,4.44l-6.69,0.01h-3.05h-3.07H40.9l-7.52,0.01l-0.02-17.21
		c0-1.47,1.19-2.66,2.66-2.67h1.64h1.3h1.98h1.08h3.07h1.52l1.53-0.01h9.51c0.03,0,0.06,0,0.09-0.01h0.01l15.26-0.01h1.66l1.65-0.01
		h3.34h3.32l10.42-0.01h3.06l3.06-0.01h0.83c0.01,0.01,0.03,0.01,0.04,0c0.02,0.01,0.04,0.01,0.06,0.01h2.13l9.47-0.01
		c0.02,0,0.04,0,0.06-0.01h0.04h4.28C117.91,57.29,119.1,58.48,119.1,59.94z M102.14,52.02c0.05-0.06,0.18-0.16,0.38-0.16l7.47-0.01
		H110c0.19,0,0.31,0.1,0.38,0.16c0.06,0.06,0.16,0.18,0.16,0.39v1.87h-8.24h-0.31V52.4c0-0.13,0.04-0.23,0.1-0.3
		C102.1,52.07,102.12,52.04,102.14,52.02z M95.78,18.97l3.21,32.84v0.01c-0.03,0.19-0.05,0.39-0.05,0.58v1.87h-2.78l-2.41-24.64
		c-0.04-0.41-0.23-0.77-0.55-1.02c-0.31-0.26-0.72-0.39-1.12-0.34L71.28,30.3l-3.71-8.56L95.78,18.97z M42.2,21.18l18.36-7.96
		l2.56,5.9l0.64,1.47l0.63,1.46l3.71,8.56l0.64,1.47l0.63,1.47l8.98,20.72l-3.34,0.01l-8.84-20.42l-0.63-1.47h-0.01l-0.63-1.47
		l-3.01-6.95c-0.16-0.36-0.46-0.66-0.83-0.81c-0.38-0.14-0.8-0.14-1.17,0.02l-20.36,8.82l-1.47,0.63l-1.47,0.64L15.76,42.3
		c-0.77,0.33-1.13,1.23-0.79,2l15.37,35.48l0.01,7.72L8.03,35.98L35.68,24l1.48-0.64l0.48-0.21L42.2,21.18z M118.38,114.4
		c-0.51,0.51-1.18,0.78-1.89,0.78l-80.42,0.07c-1.46,0-2.66-1.19-2.66-2.65l-0.01-10.4v-3.84l-0.01-3.83v-7.72L33.38,83v-2.73h0.48
		l7.35-0.01h3.05h3.07h3.06l4.88-0.01c-0.11,0.26-0.21,0.54-0.31,0.8c-0.22,0.63-0.43,1.27-0.58,1.92l-0.1,0.39
		c-0.12,0.48-0.22,0.95-0.3,1.44l-0.02,0.12c-0.09,0.51-0.16,1.02-0.21,1.54c-0.08,0.77-0.12,1.54-0.12,2.32
		c0,1.92,0.24,3.77,0.7,5.55c0.08,0.32,0.17,0.65,0.26,0.97c0.05,0.16,0.1,0.33,0.16,0.5c0.1,0.33,0.22,0.66,0.34,0.98
		c0.06,0.15,0.11,0.3,0.18,0.45c0.13,0.34,0.28,0.69,0.45,1.02c3.59,7.76,11.45,13.15,20.54,13.15c0.01,0,0.01,0,0.02,0
		c10.65-0.02,19.59-7.41,21.99-17.33c0.12-0.51,0.22-1.02,0.3-1.55h0.01c0.09-0.51,0.15-1.02,0.2-1.55
		c0.07-0.73,0.11-1.47,0.11-2.21c0-0.01,0-0.01,0-0.02c-0.01-2.31-0.35-4.56-1.02-6.71c-0.18-0.61-0.4-1.22-0.64-1.8h1.47l3.07-0.01
		h3.06l14.28-0.02l0.03,32.33C119.15,113.24,118.87,113.9,118.38,114.4z"/>
	<path d="M63.35,97.5h0.01c2.8,4.13,7.54,6.84,12.9,6.84h0.01c6.44-0.01,11.97-3.93,14.35-9.51c0-0.01,0-0.01,0-0.01
		c0.22-0.52,0.41-1.04,0.57-1.58c0.15-0.51,0.28-1.03,0.39-1.56c0.18-0.95,0.27-1.93,0.27-2.93c0-2.09-0.42-4.09-1.18-5.91
		c-0.1-0.26-0.22-0.53-0.34-0.79c-0.11-0.22-0.22-0.45-0.33-0.67c-0.13-0.23-0.25-0.46-0.39-0.67h-0.01
		c-0.15-0.26-0.31-0.52-0.49-0.77c-0.12-0.17-0.24-0.34-0.38-0.52c-2.16-2.87-5.28-4.98-8.88-5.83c-0.93-0.22-1.9-0.35-2.88-0.4
		h-0.01c-0.01-0.01-0.01-0.01-0.02,0c-0.22-0.02-0.46-0.02-0.68-0.02c-0.01,0-0.01,0-0.02,0c-0.26,0-0.54,0.01-0.8,0.02
		c-0.24,0.01-0.48,0.03-0.72,0.06c-0.41,0.03-0.81,0.09-1.21,0.16c-0.25,0.04-0.51,0.09-0.75,0.15c-0.13,0.03-0.27,0.06-0.41,0.1
		c-0.17,0.04-0.34,0.09-0.52,0.14c-0.17,0.05-0.35,0.1-0.53,0.16c-0.03,0.01-0.06,0.02-0.08,0.03c-0.78,0.26-1.52,0.59-2.24,0.97
		c-0.01,0-0.02,0-0.03,0.01c-1.72,0.91-3.24,2.14-4.5,3.61h-0.01c-0.64,0.74-1.21,1.54-1.68,2.39c-0.31,0.52-0.58,1.05-0.81,1.6
		h-0.01c-0.22,0.52-0.42,1.04-0.59,1.59c-0.15,0.51-0.28,1.03-0.39,1.56c-0.19,0.97-0.29,1.99-0.29,3.02c0,0.92,0.08,1.83,0.24,2.7
		c0.08,0.52,0.19,1.01,0.33,1.51c0.14,0.5,0.3,0.97,0.5,1.45c0.01,0.05,0.03,0.11,0.06,0.16c0.2,0.51,0.43,0.99,0.68,1.47
		C62.75,96.56,63.05,97.03,63.35,97.5z M72.4,76.82c1.23-0.4,2.52-0.6,3.85-0.6c0,0,0,0,0.01,0c3.65,0,6.95,1.57,9.24,4.07h0.01
		c0.11,0.13,0.22,0.26,0.33,0.4c0.28,0.33,0.55,0.68,0.79,1.03c0.05,0.07,0.1,0.14,0.14,0.21c0.25,0.4,0.5,0.8,0.7,1.23h0.01
		c0.02,0.04,0.03,0.08,0.05,0.11c0.81,1.66,1.27,3.52,1.27,5.49c0,1.12-0.14,2.2-0.43,3.23c-0.14,0.55-0.32,1.08-0.53,1.59h-0.01
		c-0.23,0.56-0.5,1.1-0.81,1.6c-2.19,3.66-6.19,6.12-10.76,6.12h-0.01c-3.69,0-7.02-1.6-9.32-4.15c-0.41-0.45-0.77-0.92-1.11-1.43
		c-0.12-0.17-0.22-0.33-0.32-0.51c-0.1-0.15-0.18-0.31-0.26-0.47c-0.09-0.15-0.17-0.31-0.25-0.47c-0.17-0.34-0.32-0.7-0.47-1.06
		c-0.1-0.28-0.2-0.58-0.28-0.87c-0.06-0.19-0.11-0.4-0.16-0.59c-0.13-0.51-0.22-1.01-0.28-1.54c-0.05-0.48-0.08-0.96-0.08-1.45
		c0-1.15,0.15-2.26,0.45-3.34c0.14-0.54,0.32-1.06,0.54-1.57c0.24-0.56,0.52-1.09,0.82-1.61h0.01c0.12-0.2,0.25-0.41,0.39-0.6
		c0.43-0.62,0.91-1.21,1.46-1.75c0.23-0.23,0.48-0.46,0.73-0.67c0.22-0.19,0.45-0.38,0.68-0.55c0.03-0.02,0.05-0.04,0.07-0.05
		c0.23-0.18,0.48-0.34,0.73-0.5c0.16-0.1,0.32-0.2,0.5-0.3c0.03-0.02,0.07-0.03,0.1-0.05l2.06-0.91
		C72.29,76.85,72.35,76.84,72.4,76.82z"/>
	<path d="M51.74,62.38h-3.1h-1.53l-1.53,0.01h-3.06h-1.05c-0.16,0-0.31,0.02-0.47,0.08c-0.22,0.06-0.44,0.19-0.61,0.36
		c-0.28,0.28-0.45,0.68-0.45,1.07v3.62l0.01,3.85c0,0.41,0.15,0.79,0.45,1.07c0.01,0.01,0.02,0.02,0.04,0.03v0.01
		c0.27,0.25,0.65,0.41,1.03,0.41h2.07l3.07-0.01h3.05h2.09c0.84,0,1.52-0.68,1.52-1.52l-0.01-7.47
		C53.26,63.06,52.58,62.38,51.74,62.38z M50.23,69.85h-0.86h-1.53l-1.52,0.01h-3.07l-0.26-2.67v-1.76h2.9h3.05h1.3V69.85z"/>
	<path d="M10.83,22.23c0.75,0.46,1.6,0.69,2.46,0.69c0.38,0,0.76-0.05,1.13-0.14c1.23-0.3,2.28-1.06,2.94-2.15
		c0.66-1.08,0.86-2.36,0.56-3.59c-0.62-2.55-3.19-4.11-5.74-3.49c-2.55,0.62-4.11,3.2-3.49,5.74C8.98,20.52,9.74,21.57,10.83,22.23z
		 M12.89,16.5c0.14-0.03,0.27-0.05,0.4-0.05c0.77,0,1.47,0.53,1.66,1.31c0.11,0.44,0.04,0.9-0.2,1.29
		c-0.24,0.39-0.61,0.67-1.06,0.77c-0.91,0.23-1.84-0.34-2.07-1.26C11.41,17.65,11.98,16.73,12.89,16.5z"/>
	<path d="M23,15.44c0.24,0,0.48-0.06,0.71-0.17c3.08-1.62,6.56-2.41,10.04-2.26c0.85,0.01,1.55-0.62,1.58-1.46
		c0.03-0.84-0.62-1.55-1.46-1.58c-4.02-0.16-8.02,0.74-11.57,2.61c-0.74,0.39-1.03,1.31-0.64,2.05C21.92,15.14,22.45,15.44,23,15.44
		z"/>
	<g>
		<line class="st0" x1="106.14" y1="20.43" x2="109.99" y2="20.39"/>
		<line class="st0" x1="113.75" y1="28.81" x2="113.7" y2="24.03"/>
		<line class="st0" x1="121.19" y1="20.27" x2="117.35" y2="20.32"/>
		<line class="st0" x1="113.59" y1="11.89" x2="113.63" y2="16.67"/>
	</g>
	<g>
		<line class="st0" x1="6.74" y1="101.96" x2="10.59" y2="101.92"/>
		<line class="st0" x1="14.34" y1="110.34" x2="14.3" y2="105.56"/>
		<line class="st0" x1="21.79" y1="101.8" x2="17.95" y2="101.85"/>
		<line class="st0" x1="14.19" y1="93.42" x2="14.23" y2="98.2"/>
	</g>
</g>
</svg>
