<?xml version="1.0" encoding="utf-8"?>
<!-- Generator: Adobe Illustrator 16.0.0, SVG Export Plug-In . SVG Version: 6.00 Build 0)  -->
<!DOCTYPE svg PUBLIC "-//W3C//DTD SVG 1.1//EN" "http://www.w3.org/Graphics/SVG/1.1/DTD/svg11.dtd">
<svg version="1.1" id="圖層_1" xmlns="http://www.w3.org/2000/svg" xmlns:xlink="http://www.w3.org/1999/xlink" x="0px" y="0px"
	 width="595.279px" height="647.786px" viewBox="0 98.19 595.279 647.786" enable-background="new 0 98.19 595.279 647.786"
	 xml:space="preserve">
<g id="圖層_2">
</g>
<g id="圖層_1_1_">
	<g id="XMLID_1_">
		<g>
			<path fill="#CC9D67" d="M595.28,388.077c0,10.956,0,18.26-3.651,25.564c-3.652,21.913-18.261,40.173-40.173,51.128l3.652,80.346
				c0,29.215-7.304,62.084-21.912,91.301c-14.608,25.563-36.521,51.127-62.084,69.387c-25.564,18.262-54.781,29.217-83.997,36.521
				h-3.652c-7.304,0-14.607,3.652-18.26,3.652h-7.304c-3.652,0-10.956,0-14.608,0l0,0c-3.652,0-10.956,0-14.608,0
				c-3.651,0-3.651,0-7.304,0s-10.956,0-14.608,0s-3.652,0-7.304,0c-29.216-3.652-58.433-14.609-87.648-29.217
				c-25.564-21.912-51.129-43.824-65.736-69.389c-14.608-25.564-25.564-54.779-29.217-83.996L14.608,406.337
				C3.652,391.729,0,369.817,0,351.557c3.651-18.26,10.956-36.521,25.563-47.477c14.608-10.956,32.869-18.26,51.129-18.26
				c10.956,0,21.912,3.652,32.868,10.956c3.652-32.868,18.26-62.084,36.521-87.649c43.824-62.084,109.561-102.256,178.949-109.561
				c69.388-7.304,142.429,14.608,193.557,62.084c25.564,25.564,47.477,54.78,58.433,87.648
				c7.305,14.608,10.956,32.868,14.608,51.128c0,7.304,0,10.956,0,18.26c0,3.652,0,7.304,0,7.304v7.304L595.28,388.077z
				 M573.367,388.077v-51.128v-7.304c0-3.652,0-7.304,0-7.304c0-3.652,0-10.956-3.651-14.608
				c-3.652-18.26-7.305-32.868-10.956-43.824c-10.956-29.216-29.217-54.781-54.78-76.693c-21.912-21.912-51.129-36.52-80.345-47.476
				c-32.868-10.956-65.736-14.608-94.953-10.956c-62.084,3.652-120.517,40.172-157.037,91.3
				c-18.26,25.564-32.868,54.781-36.52,87.649v10.956c0,3.652,0,3.652,0,7.304v3.652v10.956v58.432v3.652
				c0,3.652,0,7.304-3.652,7.304c-3.652,3.652-3.652,7.304-7.304,7.304c-7.305,0-10.956-3.652-10.956-10.956l-3.652-62.084v-14.608
				v-3.652v-3.652c-7.304-7.304-18.26-10.956-29.216-10.956h-3.652c-10.956,0-25.564,3.652-32.868,10.956
				c-10.956,7.304-18.261,21.912-18.261,32.868c-3.651,14.608,0,25.564,7.305,36.521l105.908,160.688c0,0,0,3.652,0,7.305
				c0,25.564,10.956,54.781,25.564,76.693s36.521,40.172,58.433,54.779c25.564,14.607,51.128,21.912,76.692,25.564
				c3.652,0,3.652,0,7.304,0c3.652,0,7.305,0,10.956,0c3.652,0,3.652,0,7.305,0c3.651,0,7.304,0,14.607,0h21.912
				c3.652,0,10.956,0,14.608-3.652h3.652c54.78-10.955,102.257-47.477,127.82-91.301c14.608-25.564,18.261-51.129,18.261-76.691
				v-73.041c-3.652,0-7.305,0-10.956,0l0,0c-25.564,0-51.129-14.607-65.736-36.521c-3.652,3.652-7.305,10.957-10.957,14.609
				c-14.607,14.607-32.868,25.564-54.78,25.564s-40.172-7.305-54.78-21.912c0-3.652-3.651-7.305-7.304-10.957
				c-14.608,21.912-40.172,36.521-65.736,40.172l0,0c-32.868,0-65.736-25.563-73.041-54.779c-3.651-7.304-3.651-18.26-3.651-25.564
				v-21.912v-43.825c0-3.652,3.651-10.956,10.956-10.956c3.652,0,10.956,3.652,10.956,10.956l3.652,62.084
				c0,7.304,0,10.957,3.651,18.26c0,10.957,7.305,21.912,18.261,29.216c7.304,3.652,18.26,7.305,29.216,7.305
				s21.912-3.652,32.868-10.957c7.304-7.305,14.608-14.607,18.26-29.216c0-3.652,3.652-10.956,3.652-18.26v-21.912v-43.824
				c0-7.304,3.652-10.956,10.956-10.956c3.652,3.652,7.304,7.304,7.304,14.608l3.652,62.084c0,3.652,0,7.304,0,10.956
				c3.652,10.956,10.956,21.913,18.26,29.215c10.956,10.957,25.564,14.609,36.521,14.609l0,0c14.608,0,25.564-7.305,36.521-18.26
				c7.304-10.957,14.607-21.913,14.607-36.521c0,0,0-3.652,0-7.304v-21.912V322.34c0-3.652,0-7.304,3.652-7.304
				c3.652,3.652,7.305,3.652,7.305,3.652c7.304,0,10.956,3.652,10.956,10.956l3.651,62.084c0,7.304,0,10.956,3.652,18.26
				c3.652,10.956,10.956,21.913,21.912,25.563c7.304,7.305,18.26,10.957,32.868,10.957c10.956,0,21.912-3.652,32.868-10.957
				c7.304-7.303,14.608-18.259,18.26-29.215C573.367,399.033,573.367,395.381,573.367,388.077z"/>
			<path fill="#CC9D67" d="M471.112,545.115c3.651,7.303,0,10.955-3.652,18.26c-3.652,3.652-10.956,10.955-18.26,10.955
				c-3.652,0-7.305,0-10.957,3.652c-3.651,0-7.304,0-10.956,0c-7.304-3.652-10.956-7.305-14.607-14.607
				c-3.652-7.305,0-10.957,3.651-18.26c3.652-7.305,10.956-10.957,18.261-10.957c7.304-3.652,14.608-3.652,21.912,0
				S471.112,541.462,471.112,545.115z"/>
			<path fill="#CC9D67" d="M328.682,548.765c3.652,7.305,7.305,10.957,7.305,18.262c0,7.303-7.305,10.955-14.608,14.607
				c-3.652,0-7.304,3.652-10.956,3.652s-7.304,0-10.956,0c-18.26-3.652-29.216-18.26-25.564-29.217
				c3.652-10.955,18.261-18.26,36.521-14.607C317.726,541.462,325.031,545.115,328.682,548.765z"/>
		</g>
	</g>
</g>
</svg>
