<?xml version="1.0" encoding="utf-8"?>
<!-- Generator: Adobe Illustrator 24.1.0, SVG Export Plug-In . SVG Version: 6.00 Build 0)  -->
<svg version="1.1" id="圖層_1" xmlns="http://www.w3.org/2000/svg" xmlns:xlink="http://www.w3.org/1999/xlink" x="0px" y="0px"
	 viewBox="0 0 28.4 28.4" style="enable-background:new 0 0 28.4 28.4;" xml:space="preserve">
<style type="text/css">
	.st0{fill:#231815;}
	.st1{fill:none;stroke:#FFFFFF;stroke-width:1.5;stroke-linecap:round;stroke-linejoin:round;stroke-miterlimit:10;}
</style>
<path class="st0" d="M13.6,0c-2.2,0-4.4,0.5-6.1,1.3C5.7,2.2,4.2,3.4,3,5C1.9,6.3,1.1,7.7,0.6,9.4C0.2,10.8,0,12.3,0,14.1
	c0,1.5,0.2,3.1,0.6,4.7c0.4,1.5,1.1,3.1,2.3,4.5c1.2,1.5,2.7,2.8,4.5,3.7c1.9,0.8,4,1.3,6.2,1.3c0.2,0,0.4,0,0.6,0
	c0.1,0,0.2,0,0.4,0c2.3,0,4.5-0.4,6.5-1.3c2.3-1,3.7-2.6,4.5-3.6c1-1.3,1.7-2.8,2.3-4.5c0.4-1.3,0.6-2.9,0.6-4.7
	c-0.1-1.4-0.2-3.1-0.6-4.8c-0.4-1.5-1.1-3.1-2.3-4.5c-1.2-1.6-2.8-2.9-4.5-3.6C19,0.4,16.6,0,14.3,0C14,0,13.8,0,13.6,0L13.6,0z"/>
<g>
	<path class="st1" d="M11.3,22.5L11.3,22.5c1.5,0,2.7-1.2,2.7-2.7v-9.5C14,8.5,15.3,7,17,7h1.9"/>
	<line class="st1" x1="11.3" y1="13" x2="18.6" y2="13"/>
</g>
</svg>
