<?xml version="1.0" encoding="utf-8"?>
<!-- Generator: Adobe Illustrator 24.1.0, SVG Export Plug-In . SVG Version: 6.00 Build 0)  -->
<svg version="1.1" id="圖層_1" xmlns="http://www.w3.org/2000/svg" xmlns:xlink="http://www.w3.org/1999/xlink" x="0px" y="0px"
	 viewBox="0 0 28.4 28.4" style="enable-background:new 0 0 28.4 28.4;" xml:space="preserve">
<style type="text/css">
	.st0{fill:none;stroke:#231816;stroke-width:1.5;stroke-linecap:round;stroke-linejoin:round;stroke-miterlimit:10;}
	.st1{fill:none;stroke:#231815;stroke-width:1.5;stroke-linecap:round;stroke-linejoin:round;stroke-miterlimit:10;}
	.st2{fill:#231815;}
	.st3{fill:none;stroke:#231816;stroke-width:1.5;stroke-linecap:round;stroke-linejoin:round;}
	.st4{fill:none;stroke:#231816;stroke-width:1.5;stroke-linecap:round;stroke-linejoin:round;stroke-dasharray:2.7816,4.6359;}
</style>
<path class="st0" d="M13.2,25.8H6.8c-3.2,0-5.9-2.6-5.9-5.9V8.5c0-3.2,2.6-5.9,5.9-5.9h14.8c3.2,0,5.9,2.6,5.9,5.9v2.3"/>
<g>
	<path class="st1" d="M21.4,13c-1.1,0-2.2,0.4-3,1.3c-1.4,1.3-1.7,3.5-0.8,5.2l2.7,4.6c0.6,1,2,1.1,2.7,0c0.9-1.5,2-3.3,2.7-4.5
		c0.7-1.3,0.6-2.8,0-4.1C24.9,13.8,23.2,12.9,21.4,13z"/>
	<circle class="st2" cx="21.7" cy="17.2" r="1.2"/>
</g>
<line class="st0" x1="4.9" y1="2.9" x2="4.9" y2="25.4"/>
<line class="st0" x1="13.2" y1="2.9" x2="13.2" y2="25.4"/>
<g>
	<g>
		<line class="st3" x1="9.1" y1="2.9" x2="9.1" y2="4.4"/>
		<line class="st4" x1="9.1" y1="9" x2="9.1" y2="21.6"/>
		<line class="st3" x1="9.1" y1="23.9" x2="9.1" y2="25.4"/>
	</g>
</g>
</svg>
