<?xml version="1.0" encoding="utf-8"?>
<!-- Generator: Adobe Illustrator 24.1.0, SVG Export Plug-In . SVG Version: 6.00 Build 0)  -->
<svg version="1.1" id="圖層_1" xmlns="http://www.w3.org/2000/svg" xmlns:xlink="http://www.w3.org/1999/xlink" x="0px" y="0px"
	 viewBox="0 0 28.4 28.4" style="enable-background:new 0 0 28.4 28.4;" xml:space="preserve">
<style type="text/css">
	.st0{fill:#231816;stroke:#231816;stroke-width:0.5;stroke-miterlimit:10;}
	.st1{fill:none;stroke:#231816;stroke-width:1.5;stroke-linecap:round;stroke-linejoin:round;stroke-miterlimit:10;}
</style>
<g>
	<path class="st0" d="M21.7,5.1c2.4,0,4.5,2,4.5,4.5v9.3c0,2.4-2,4.5-4.5,4.5h-15c-2.4,0-4.5-2-4.5-4.5V9.6c0-2.4,2-4.5,4.5-4.5
		L21.7,5.1 M21.7,4.2h-15c-2.9,0-5.4,2.5-5.4,5.4v9.3c0,2.9,2.5,5.4,5.4,5.4h15c2.9,0,5.4-2.4,5.4-5.4V9.6
		C27.1,6.7,24.6,4.2,21.7,4.2L21.7,4.2z"/>
</g>
<path class="st1" d="M4.3,10.6l6.3,3.6c2.3,1.3,5,1.3,7.3,0l6.4-3.6"/>
</svg>
