<?xml version="1.0" encoding="utf-8"?>
<!-- Generator: Adobe Illustrator 24.1.0, SVG Export Plug-In . SVG Version: 6.00 Build 0)  -->
<svg version="1.1" id="圖層_1" xmlns="http://www.w3.org/2000/svg" xmlns:xlink="http://www.w3.org/1999/xlink" x="0px" y="0px"
	 viewBox="0 0 28.4 28.4" style="enable-background:new 0 0 28.4 28.4;" xml:space="preserve">
<style type="text/css">
	.st0{fill:none;stroke:#231816;stroke-width:1.5;stroke-linecap:round;stroke-linejoin:round;stroke-miterlimit:10;}
</style>
<path class="st0" d="M5.3,2.6C2,6,8.5,12.4,11.8,8.9C15.6,5.4,8.4-1.3,5.3,2.6z"/>
<path class="st0" d="M19.3,17.4c-3.3,3.6,2.9,9.9,6.4,6.4C29.3,20.4,22.7,13.9,19.3,17.4"/>
<path class="st0" d="M4.6,3.6c-8.3,8.8,11.9,29.1,20.7,20.8"/>
<path class="st0" d="M9.7,10.1c-1.3,4.4,4.4,10.2,8.6,9"/>
<path class="st0" d="M17.1,7.6c2.4,0,4.4,2,4.4,4.4"/>
<path class="st0" d="M17.3,3.7c4.4,0,7.9,3.5,7.9,7.9"/>
</svg>
