<?xml version="1.0" encoding="utf-8"?>
<!-- Generator: Adobe Illustrator 24.1.0, SVG Export Plug-In . SVG Version: 6.00 Build 0)  -->
<svg version="1.1" id="圖層_1" xmlns="http://www.w3.org/2000/svg" xmlns:xlink="http://www.w3.org/1999/xlink" x="0px" y="0px"
	 viewBox="0 0 28.4 28.4" style="enable-background:new 0 0 28.4 28.4;" xml:space="preserve">
<style type="text/css">
	.st0{fill:#231815;}
	.st1{fill:none;stroke:#231815;stroke-linecap:round;stroke-linejoin:round;stroke-miterlimit:10;}
</style>
<g id="圖層_2_1_">
</g>
<g>
	<g>
		<path class="st0" d="M13.6,1c0.2,0,0.4,0,0.6,0c2.3,0,4.5,0.4,6.4,1.3c1.6,0.6,3,1.8,4.1,3.3c1,1.2,1.7,2.6,2.1,4.1
			c0.4,1.6,0.5,3.1,0.6,4.5l0,0.2c0,1.7-0.2,3.1-0.6,4.4c-0.5,1.6-1.1,2.9-2.1,4.2c-1.2,1.5-2.6,2.6-4.2,3.3c-1.7,0.8-3.8,1.2-6,1.2
			l-0.5,0c-0.2,0-0.4,0-0.6,0c-1.9,0-3.9-0.4-5.7-1.2c-1.6-0.8-3-1.9-4.2-3.4c-1-1.2-1.7-2.6-2.1-4.1C1.2,17,1,15.6,1,14.1
			c0-1.7,0.2-3.2,0.6-4.4c0.5-1.7,1.2-3,2.1-4l0,0l0,0C4.9,4.2,6.3,3,7.9,2.2C9.6,1.4,11.6,1,13.6,1 M13.6,0c-2.2,0-4.4,0.5-6.1,1.3
			C5.7,2.2,4.2,3.4,3,5C1.9,6.3,1.1,7.7,0.6,9.4C0.2,10.8,0,12.3,0,14.1c0,1.5,0.2,3.1,0.6,4.7c0.4,1.5,1.1,3.1,2.3,4.5
			c1.2,1.5,2.7,2.8,4.5,3.7c1.9,0.8,4,1.3,6.2,1.3c0.2,0,0.4,0,0.6,0c0.1,0,0.2,0,0.4,0c2.3,0,4.5-0.4,6.5-1.3
			c2.3-1,3.7-2.6,4.5-3.6c1-1.3,1.7-2.8,2.3-4.5c0.4-1.3,0.6-2.9,0.6-4.7c-0.1-1.4-0.2-3.1-0.6-4.8c-0.4-1.5-1.1-3.1-2.3-4.5
			c-1.2-1.6-2.8-2.9-4.5-3.6C19,0.4,16.6,0,14.3,0C14,0,13.8,0,13.6,0L13.6,0z"/>
	</g>
</g>
<line class="st1" x1="14.3" y1="5.1" x2="14.3" y2="22.7"/>
<path class="st1" d="M7.8,15.7l4.4,5.9c1,1.3,3,1.3,4,0l4.4-5.9"/>
</svg>
