<?xml version="1.0" encoding="utf-8"?>
<!-- Generator: Adobe Illustrator 24.1.0, SVG Export Plug-In . SVG Version: 6.00 Build 0)  -->
<svg version="1.1" id="圖層_1" xmlns="http://www.w3.org/2000/svg" xmlns:xlink="http://www.w3.org/1999/xlink" x="0px" y="0px"
	 viewBox="0 0 28.4 28.4" style="enable-background:new 0 0 28.4 28.4;" xml:space="preserve">
<style type="text/css">
	.st0{fill:#231815;}
</style>
<g>
	<path class="st0" d="M10.1,14l0.7,2.4c0,0.1,0.1,0.2,0.2,0.2h1.2L11.7,14H10.1z"/>
	<polygon class="st0" points="13.3,16.6 14.7,16.6 14.7,14 12.7,14 	"/>
	<circle class="st0" cx="18.2" cy="21.3" r="0.9"/>
	<polygon class="st0" points="12.5,13 14.7,13 14.7,10.4 11.9,10.4 	"/>
	<path class="st0" d="M10.9,10.4H9.1l0.1,0.3c0,0.1,0.1,0.2,0.1,0.4l0.4,1.5L9.8,13h1.7L10.9,10.4z"/>
	<circle class="st0" cx="11.8" cy="21.3" r="0.9"/>
	<polygon class="st0" points="15.7,16.6 17.1,16.6 17.6,14 15.7,14 	"/>
	<path class="st0" d="M27.8,9.4c-0.4-1.5-1.1-3.1-2.3-4.5C24.3,3.3,22.8,2,21,1.3C19,0.4,16.5,0,14.2,0c-0.3,0-0.5,0-0.7,0
		c-2.2,0-4.4,0.5-6.1,1.3C5.7,2.2,4.2,3.4,3,5C1.8,6.3,1,7.7,0.5,9.4C0.2,10.8,0,12.3,0,14.1c0,1.5,0.2,3.1,0.6,4.7
		c0.4,1.5,1.1,3.1,2.3,4.5C4,24.8,5.5,26.1,7.3,27c1.9,0.8,4,1.3,6.2,1.3c0.2,0,0.4,0,0.6,0c0.1,0,0.2,0,0.4,0
		c2.3,0,4.5-0.4,6.5-1.3c2.3-1,3.7-2.6,4.5-3.6c1-1.3,1.7-2.8,2.3-4.5c0.4-1.3,0.6-2.9,0.6-4.7C28.3,12.8,28.2,11.1,27.8,9.4z
		 M22.2,11.1l-1.6,5.6c-0.2,0.5-0.6,0.9-1.2,0.9H11c-0.1,0-0.1,0-0.1,0c0,0,0,0,0,0L10,19c-0.1,0.1,0,0.2,0,0.3c0,0,0.1,0.1,0.2,0.1
		h10.7c0.3,0,0.5,0.2,0.5,0.5s-0.2,0.5-0.5,0.5h-1c0.2,0.3,0.3,0.6,0.3,0.9c0,1.1-0.9,1.9-1.9,1.9s-1.9-0.9-1.9-1.9
		c0-0.3,0.1-0.7,0.3-0.9h-3.1c0.2,0.3,0.3,0.6,0.3,0.9c0,1.1-0.9,1.9-1.9,1.9s-1.9-0.9-1.9-1.9c0-0.3,0.1-0.7,0.3-1
		c-0.4,0-0.7-0.2-0.9-0.6c-0.2-0.4-0.2-0.9,0-1.3l0.8-1.3l-1.2-4.3L8.2,11C7.7,9.7,6.7,8.7,5.3,8.2l0,0C5.1,8.1,5,7.9,5,7.7
		c0-0.3,0.2-0.5,0.5-0.5c0.1,0,0.1,0,0.2,0l0,0c1.1,0.4,2.1,1.2,2.8,2.2h12.4c0.4,0,0.8,0.2,1.1,0.5C22.2,10.3,22.3,10.7,22.2,11.1z
		"/>
	<path class="st0" d="M20.9,10.4h-1.5L18.9,13h1.7l0.6-2.2c0-0.1,0-0.2-0.1-0.3C21.1,10.5,21,10.4,20.9,10.4z"/>
	<path class="st0" d="M18.2,16.6h1.2c0.1,0,0.2-0.1,0.2-0.2l0.7-2.4h-1.6L18.2,16.6z"/>
	<polygon class="st0" points="15.7,10.4 15.7,13 17.8,13 18.3,10.4 	"/>
</g>
</svg>
