<?xml version="1.0" encoding="utf-8"?>
<!-- Generator: Adobe Illustrator 24.1.0, SVG Export Plug-In . SVG Version: 6.00 Build 0)  -->
<svg version="1.1" id="圖層_1" xmlns="http://www.w3.org/2000/svg" xmlns:xlink="http://www.w3.org/1999/xlink" x="0px" y="0px"
	 viewBox="0 0 82.85 61.37" style="enable-background:new 0 0 82.85 61.37;" xml:space="preserve">
<style type="text/css">
	.st0{fill:#231815;}
</style>
<g id="圖層_2_1_">
</g>
<g>
	<path class="st0" d="M39.92,19.15c-0.01-0.15-0.01-0.31-0.02-0.46c-0.01-0.29-0.02-0.6-0.05-0.9c-0.13-1.06-0.33-1.91-0.61-2.68
		c-0.61-1.71-1.63-3.31-2.94-4.62c-2.61-2.59-6.38-3.95-10.07-3.64c-3.68,0.26-7.17,2.21-9.34,5.22c-0.98,1.34-1.67,2.9-2.02,4.55
		c-0.53-0.33-1.14-0.53-1.75-0.57c-0.98-0.07-1.99,0.25-2.77,0.88c-0.78,0.61-1.31,1.52-1.48,2.49c-0.17,0.96,0.03,1.99,0.55,2.83
		l5.19,8.38c0.03,1.56,0.48,3.1,1.3,4.48c0.78,1.32,1.94,2.5,3.38,3.43c1.36,0.87,2.91,1.46,4.49,1.72c0.13,0.02,0.27,0.04,0.4,0.05
		c0.26,0.04,0.52,0.08,0.79,0.09c0.13,0,0.27,0.01,0.4,0.02c0.25,0.01,0.5,0.03,0.74,0.03c0.02,0,0.03,0,0.05,0
		c0.26-0.01,0.53-0.02,0.8-0.03l0.4-0.02c0.35-0.04,0.69-0.09,1.04-0.14l0.15-0.02c1.59-0.3,3.14-0.91,4.46-1.78
		c1.44-0.95,2.6-2.15,3.35-3.48c0.85-1.47,1.28-3.09,1.26-4.68l-0.04-4.11c1.09-0.51,1.92-1.47,2.22-2.57
		c0.11-0.35,0.16-0.77,0.16-1.28l-0.05-2.76L39.92,19.15z M38.68,22.3c-0.01,0.35-0.03,0.62-0.13,0.91
		c-0.19,0.59-0.55,1.1-1.02,1.44c-0.46,0.35-1.05,0.55-1.66,0.55c-0.61,0-1.21-0.2-1.67-0.55c-0.47-0.34-0.83-0.85-1.02-1.44
		c-0.09-0.28-0.12-0.56-0.13-0.91l-0.07-3.32c-0.01-0.29-0.24-0.53-0.54-0.54c-0.14,0-0.29,0.05-0.4,0.15
		c-0.11,0.1-0.17,0.24-0.17,0.39l-0.06,2.21l-0.02,1.11c0,0.11,0,0.22,0.01,0.31c-0.07,0.68-0.39,1.32-0.87,1.79
		c-0.53,0.51-1.24,0.8-1.95,0.8c-0.02,0-0.04,0-0.06,0c-0.71,0-1.41-0.29-1.94-0.8c-0.42-0.4-0.71-0.94-0.83-1.52
		c0.02-0.18,0.02-0.38,0.02-0.58l-0.07-3.32c-0.01-0.3-0.25-0.54-0.54-0.54c-0.31,0-0.57,0.24-0.57,0.54l-0.06,2.22l-0.02,1.1
		c-0.01,0.35-0.03,0.63-0.13,0.91c-0.19,0.59-0.55,1.1-1.02,1.44c-0.46,0.35-1.05,0.55-1.66,0.55c-0.62,0-1.21-0.2-1.67-0.55
		c-0.47-0.34-0.83-0.85-1.03-1.45c-0.1-0.28-0.12-0.56-0.13-0.91l-0.09-3.32c-0.01-0.27-0.23-0.5-0.5-0.5
		c-0.28,0.01-0.53,0.22-0.54,0.5l-0.07,2.22l-0.02,1.11c-0.01,0.51,0.04,0.93,0.14,1.27c0.45,1.7,2.12,2.98,3.89,2.98
		c0.01,0,0.03,0,0.04,0c1.35,0,2.68-0.75,3.43-1.9c0.15,0.24,0.33,0.47,0.53,0.68c0.73,0.77,1.81,1.23,2.89,1.23
		c1.08,0,2.16-0.46,2.9-1.22c0.21-0.22,0.39-0.45,0.55-0.71c0.74,1.17,2.07,1.94,3.44,1.94c0.01,0,0.01,0,0.02,0
		c0.18,0,0.36-0.01,0.54-0.04l-0.04,3.77c-0.01,1.39-0.4,2.78-1.13,4.02c-1.4,2.34-3.99,4.06-6.91,4.59l-0.23,0.03
		c-0.28,0.04-0.57,0.08-0.83,0.11l-1.09,0.04c-0.24,0-0.46-0.01-0.69-0.02c-0.14-0.01-0.27-0.01-0.41-0.02
		c-0.22-0.01-0.45-0.04-0.68-0.07c-0.13-0.02-0.26-0.04-0.39-0.05c-1.42-0.22-2.8-0.73-4.01-1.48c-1.29-0.8-2.34-1.82-3.03-2.96
		c-0.75-1.23-1.15-2.62-1.17-4.03c0-0.1-0.03-0.21-0.09-0.3l-5.2-8.55c-0.36-0.6-0.5-1.3-0.37-1.97c0.12-0.67,0.49-1.29,1.03-1.71
		c0.49-0.38,1.11-0.6,1.73-0.6c0.05,0,0.11,0,0.16,0.01c0.57,0.04,1.14,0.26,1.62,0.62c-0.01,0.1-0.01,0.2-0.02,0.3
		c0,0.07-0.01,0.15-0.01,0.23l-0.03,0.69l0.04,3.26c0,0.3,0.24,0.53,0.54,0.54c0.15,0,0.28-0.05,0.39-0.15
		c0.1-0.1,0.16-0.24,0.17-0.38l0.05-3.25l0.04-0.62c0.01-0.08,0.01-0.16,0.02-0.23c0.01-0.13,0.01-0.25,0.04-0.38l0.11-0.62
		c0.3-1.64,0.98-3.18,1.96-4.47c2-2.67,5.14-4.39,8.38-4.59c1.66-0.12,3.33,0.1,4.84,0.64c1.54,0.55,2.98,1.44,4.15,2.57
		c1.19,1.15,2.11,2.57,2.68,4.09c0.27,0.68,0.46,1.44,0.61,2.38c0.03,0.26,0.05,0.52,0.06,0.78c0.01,0.16,0.02,0.31,0.03,0.46
		l0.01,0.4L38.68,22.3z"/>
	<path class="st0" d="M29.95,31.85c0.17,0.06,0.35,0.09,0.54,0.09c0.17,0,0.36-0.02,0.54-0.07c0.37-0.1,0.7-0.3,0.92-0.55
		c0.24-0.27,0.33-0.59,0.25-0.88c-0.08-0.29-0.31-0.52-0.65-0.63c-0.32-0.11-0.7-0.11-1.07-0.01c-0.37,0.1-0.7,0.3-0.92,0.55
		c-0.24,0.27-0.33,0.59-0.25,0.88C29.38,31.51,29.61,31.73,29.95,31.85z"/>
	<path class="st0" d="M23.22,31.87c0.19,0.05,0.37,0.07,0.55,0.07c0.19,0,0.38-0.03,0.55-0.08c0.35-0.12,0.59-0.35,0.67-0.64
		c0.08-0.29-0.01-0.61-0.26-0.89c-0.23-0.26-0.56-0.46-0.95-0.56c-0.83-0.22-1.61,0.06-1.77,0.65
		C21.86,31.01,22.39,31.64,23.22,31.87z"/>
	<path class="st0" d="M72.53,16.99c-0.79-0.65-1.76-0.99-2.74-0.95c-0.66,0.02-1.31,0.24-1.87,0.62c-0.34-1.65-1.02-3.22-2-4.55
		c-2.16-3.01-5.64-4.97-9.32-5.24c-3.69-0.32-7.46,1.04-10.08,3.62c-1.31,1.31-2.33,2.91-2.94,4.62c-0.28,0.77-0.48,1.62-0.61,2.69
		c-0.03,0.3-0.04,0.61-0.05,0.91c0,0.15-0.01,0.3-0.02,0.47l0,0.36c-0.02,0.93-0.05,1.97-0.05,3.05c0,0.21,0.03,0.42,0.07,0.64
		l0,0.9c0,0.44,0,0.88,0,1.31l-0.01,6.43l-0.04,4.02c0,0.37,0.04,0.7,0.11,0.97c0.19,0.67,0.58,1.25,1.11,1.64
		c0.28,0.21,0.58,0.36,0.91,0.47c0.18,0.06,0.35,0.09,0.51,0.11c0.17,0.01,0.34,0.02,0.46,0.02l1.65,0.01
		c1.02,0.01,2.07,0.02,3.11-0.07c1.09,0.58,2.27,0.99,3.5,1.22l0.15,0.02c0.34,0.05,0.69,0.1,1.04,0.14l0.39,0.02
		c0.27,0.01,0.53,0.03,0.8,0.03c0.03,0,0.05,0,0.08,0c0.23,0,0.47-0.01,0.71-0.02c0.13-0.01,0.27-0.01,0.4-0.02
		c0.27-0.01,0.53-0.05,0.79-0.09c0.13-0.02,0.27-0.04,0.41-0.06c1.58-0.26,3.14-0.84,4.5-1.7c1.44-0.92,2.62-2.11,3.4-3.43
		c0.81-1.37,1.25-2.92,1.27-4.49c1.91-3.03,3.78-6.04,5.19-8.32c0.53-0.83,0.75-1.88,0.59-2.82C73.81,18.53,73.29,17.61,72.53,16.99
		z M47.59,37.77l-1.61,0.01c-0.11,0-0.2,0-0.28,0l-0.04,0c-0.1-0.01-0.19-0.03-0.29-0.06c-0.18-0.05-0.36-0.14-0.52-0.26
		c-0.31-0.22-0.55-0.56-0.67-0.97c-0.06-0.2-0.08-0.39-0.08-0.62l-0.04-4.02l0-6.5c0.27,0.27,0.58,0.51,0.9,0.69
		c0.08,0.05,0.17,0.09,0.26,0.12l-0.05,4.11c-0.03,1.6,0.41,3.22,1.25,4.69c0.59,1.04,1.4,1.98,2.42,2.81
		C48.41,37.77,47.99,37.77,47.59,37.77z M72.27,21.66L72.27,21.66c-1.43,2.33-3.31,5.41-5.17,8.51c-0.05,0.09-0.08,0.19-0.08,0.3
		c-0.03,1.39-0.45,2.77-1.21,4.01c-0.69,1.13-1.74,2.15-3.02,2.95c-1.21,0.75-2.59,1.27-3.99,1.48c-0.13,0.01-0.27,0.03-0.4,0.05
		c-0.23,0.03-0.45,0.06-0.67,0.07c-0.14,0-0.27,0.01-0.41,0.02c-0.23,0.01-0.45,0.02-0.69,0.02c-0.23,0-0.46-0.02-0.69-0.03
		l-0.39-0.02c-0.29-0.03-0.58-0.07-0.86-0.11l-0.21-0.03c-2.94-0.54-5.52-2.25-6.91-4.59c-0.73-1.24-1.12-2.63-1.13-4.02l-0.04-3.78
		c0.93,0.12,1.88-0.07,2.63-0.55c0.55-0.33,1.01-0.79,1.35-1.35c0.73,1.18,2.07,1.95,3.45,1.95c0.01,0,0.02,0,0.03,0
		c1.37,0,2.71-0.76,3.44-1.94c0.34,0.54,0.8,1,1.34,1.32c0.58,0.36,1.27,0.57,2,0.59c0.69,0.02,1.39-0.15,2.04-0.49
		c0.64-0.36,1.17-0.86,1.52-1.44c0.37-0.6,0.57-1.29,0.59-2.02c-0.02-1.29-0.05-2.46-0.12-3.59c-0.02-0.26-0.22-0.46-0.48-0.48
		c-0.28-0.02-0.52,0.2-0.54,0.48c-0.05,0.85-0.08,1.72-0.11,2.57c-0.01,0.33-0.02,0.66-0.03,0.98c-0.02,0.49-0.17,0.96-0.44,1.37
		c-0.23,0.39-0.59,0.73-1.03,0.99c-0.85,0.48-1.94,0.47-2.77-0.03c-0.73-0.42-1.26-1.21-1.39-2.07c0.01-0.17,0.02-0.33,0.01-0.48
		l-0.02-1.11c-0.01-0.26-0.02-0.52-0.03-0.78c-0.01-0.48-0.03-0.96-0.05-1.43c-0.01-0.26-0.22-0.47-0.48-0.48
		c-0.28-0.01-0.52,0.2-0.53,0.48c-0.02,0.48-0.04,0.96-0.05,1.43c-0.01,0.26-0.02,0.52-0.03,0.78l-0.02,1.1
		c-0.01,0.35-0.04,0.63-0.14,0.91c-0.2,0.6-0.56,1.11-1.04,1.44c-0.46,0.35-1.05,0.54-1.66,0.54c-0.61,0-1.2-0.2-1.67-0.55
		c-0.46-0.34-0.83-0.85-1.02-1.44c-0.1-0.28-0.12-0.56-0.13-0.91l-0.04-1.87c-0.01-0.48-0.03-0.97-0.05-1.45
		c-0.01-0.27-0.23-0.48-0.5-0.5c-0.28-0.01-0.53,0.21-0.55,0.5c-0.02,0.48-0.04,0.97-0.05,1.45l-0.05,1.88c0,0.1,0,0.2,0,0.27
		c-0.08,0.94-0.63,1.8-1.43,2.25c-0.4,0.24-0.88,0.37-1.37,0.38c-0.46,0.01-0.94-0.11-1.38-0.35c-0.86-0.46-1.43-1.38-1.46-2.34
		c-0.01-0.35-0.02-0.72-0.02-1.09c0-0.23-0.01-0.45-0.01-0.67l-0.03-1.22l0-0.36c0.01-0.16,0.02-0.31,0.03-0.47
		c0.02-0.26,0.03-0.52,0.06-0.78c0.15-0.95,0.34-1.7,0.61-2.39c0.57-1.52,1.5-2.93,2.68-4.08c1.18-1.13,2.61-2.02,4.16-2.57
		c1.51-0.54,3.18-0.76,4.85-0.64c3.24,0.2,6.37,1.92,8.38,4.6c0.98,1.29,1.66,2.83,1.97,4.47l0.11,0.62
		c0.02,0.13,0.03,0.25,0.04,0.38c0,0.08,0.01,0.15,0.02,0.23l0.04,0.62l0.05,3.26c0,0.28,0.23,0.5,0.51,0.51
		c0.14,0,0.27-0.05,0.37-0.14c0.1-0.1,0.15-0.22,0.16-0.36l0.05-3.27l-0.02-0.68c0-0.07-0.01-0.14-0.01-0.22
		c0-0.09-0.01-0.17-0.01-0.26c0.52-0.43,1.11-0.66,1.71-0.67c0.65-0.03,1.35,0.22,1.86,0.65c0.52,0.42,0.87,1.04,0.98,1.71
		C72.79,20.38,72.65,21.06,72.27,21.66z"/>
	<path class="st0" d="M58.93,29.9L58.93,29.9c-0.38,0.1-0.7,0.3-0.92,0.55c-0.24,0.27-0.33,0.58-0.25,0.88
		c0.08,0.29,0.31,0.52,0.65,0.63c0.17,0.06,0.35,0.09,0.54,0.09c0.17,0,0.36-0.02,0.54-0.07c0.37-0.1,0.7-0.29,0.92-0.55
		c0.24-0.27,0.33-0.59,0.25-0.88C60.51,29.97,59.75,29.69,58.93,29.9z"/>
	<path class="st0" d="M52.24,29.88c-0.84-0.22-1.61,0.06-1.77,0.65c-0.08,0.29,0.06,0.66,0.26,0.89c0.18,0.21,0.56,0.46,0.95,0.56
		c0.19,0.05,0.38,0.08,0.56,0.08c0.6,0,1.09-0.27,1.21-0.73C53.6,30.74,53.07,30.1,52.24,29.88z"/>
	<path class="st0" d="M75.41,10.3C68.75,3.52,56.68-0.14,41.44-0.01c-15.28-0.14-27.33,3.5-34,10.26
		c-3.81,3.86-5.67,8.51-5.55,13.81C1.76,29.36,3.62,34,7.42,37.87c6.66,6.77,18.73,10.44,33.97,10.31c0.28,0,0.56,0,0.83,0
		c14.86,0.01,26.62-3.62,33.16-10.27c3.81-3.86,5.67-8.51,5.55-13.81C81.07,18.81,79.21,14.16,75.41,10.3z M74.19,36.73
		c-6.34,6.44-17.97,9.89-32.79,9.76c-14.79,0.13-26.43-3.36-32.77-9.8c-3.47-3.53-5.17-7.77-5.05-12.61l0-0.02l0-0.02
		c-0.12-4.83,1.59-9.07,5.06-12.6C14.99,5,26.62,1.55,41.44,1.68c14.78-0.12,26.43,3.36,32.77,9.8c3.47,3.53,5.17,7.77,5.05,12.61
		l0,0.02l0,0.02C79.37,28.96,77.67,33.2,74.19,36.73z"/>
	<polygon class="st0" points="7.63,58.38 4.67,52.81 3.19,52.81 3.19,61.35 4.76,61.35 4.76,56.03 4.79,56.03 6.95,60.13 
		8.26,60.13 10.42,56.03 10.46,56.03 10.46,61.35 12.02,61.35 12.02,52.81 10.54,52.81 	"/>
	<rect x="15.22" y="52.81" class="st0" width="1.48" height="1.22"/>
	<rect x="15.22" y="55.27" class="st0" width="1.48" height="6.08"/>
	<path class="st0" d="M22.86,57.73l-1.22-0.08c-0.36-0.03-0.61-0.1-0.75-0.22c-0.16-0.1-0.23-0.22-0.22-0.36
		c0-0.21,0.1-0.39,0.29-0.53c0.19-0.14,0.51-0.21,0.97-0.21c0.41,0,0.77,0.05,1.08,0.15c0.32,0.11,0.62,0.25,0.9,0.42l0.92-0.88
		c-0.36-0.26-0.77-0.46-1.22-0.61c-0.24-0.07-0.49-0.12-0.76-0.16c-0.27-0.04-0.58-0.05-0.92-0.05c-0.79,0-1.43,0.16-1.95,0.47
		c-0.53,0.31-0.79,0.78-0.8,1.41c0.01,0.52,0.21,0.92,0.61,1.21c0.39,0.3,0.89,0.47,1.51,0.52l1.31,0.09
		c0.27,0.01,0.5,0.06,0.66,0.15c0.16,0.09,0.24,0.24,0.24,0.46c0,0.25-0.13,0.44-0.41,0.57s-0.62,0.21-1.05,0.21
		c-0.95,0-1.73-0.26-2.33-0.78l-1.03,0.84c0.96,0.73,2.04,1.09,3.24,1.09c0.88-0.01,1.61-0.18,2.18-0.5
		c0.57-0.32,0.86-0.78,0.87-1.37c0-0.5-0.16-0.92-0.48-1.25C24.18,57.97,23.63,57.78,22.86,57.73z"/>
	<path class="st0" d="M32.38,55.98c-0.19-0.2-0.47-0.38-0.82-0.54c-0.36-0.15-0.83-0.23-1.41-0.24c-0.56,0.01-1.02,0.09-1.38,0.24
		c-0.36,0.16-0.65,0.34-0.85,0.54c-0.27,0.23-0.48,0.51-0.61,0.85c-0.13,0.34-0.19,0.84-0.19,1.48c0,0.64,0.06,1.13,0.19,1.46
		c0.13,0.34,0.34,0.63,0.61,0.87c0.2,0.19,0.49,0.36,0.85,0.52c0.36,0.17,0.82,0.26,1.38,0.26c0.58-0.01,1.05-0.1,1.41-0.26
		c0.19-0.07,0.35-0.15,0.48-0.25c0.14-0.09,0.25-0.17,0.35-0.26c0.29-0.25,0.5-0.54,0.62-0.87c0.12-0.34,0.18-0.82,0.18-1.46
		s-0.06-1.13-0.18-1.48C32.88,56.5,32.67,56.21,32.38,55.98z M31.63,59.24c-0.05,0.2-0.14,0.38-0.29,0.53
		c-0.11,0.12-0.27,0.22-0.48,0.31c-0.2,0.09-0.44,0.13-0.71,0.13c-0.25,0-0.48-0.04-0.7-0.13c-0.2-0.09-0.37-0.19-0.5-0.31
		c-0.13-0.15-0.22-0.33-0.28-0.53c-0.06-0.2-0.08-0.51-0.08-0.93c0-0.43,0.03-0.74,0.08-0.94c0.06-0.19,0.15-0.36,0.28-0.5
		c0.13-0.14,0.29-0.25,0.5-0.32c0.21-0.08,0.45-0.12,0.7-0.12c0.27,0,0.51,0.04,0.71,0.12c0.21,0.08,0.38,0.19,0.48,0.32
		c0.15,0.14,0.24,0.31,0.29,0.5c0.05,0.2,0.07,0.52,0.07,0.95C31.7,58.73,31.67,59.04,31.63,59.24z"/>
	<polygon class="st0" points="39.12,53.96 41.96,53.96 41.96,61.35 43.52,61.35 43.52,53.96 46.36,53.96 46.36,52.81 39.12,52.81 	
		"/>
	<path class="st0" d="M48.45,55.92h-0.03v-0.64h-1.48v6.08h1.48v-3.67c0.01-0.45,0.17-0.77,0.47-0.97c0.27-0.2,0.59-0.31,0.97-0.31
		c0.34,0,0.66,0.1,0.97,0.31l1.08-1.06c-0.44-0.3-0.96-0.46-1.55-0.47C49.58,55.2,48.94,55.44,48.45,55.92z"/>
	<path class="st0" d="M57.76,55.63c-0.55-0.3-1.29-0.44-2.22-0.43c-1.1-0.02-1.93,0.28-2.49,0.89l1.16,0.73
		c0.13-0.18,0.3-0.3,0.53-0.38c0.21-0.06,0.5-0.09,0.87-0.09c1.02-0.02,1.52,0.25,1.51,0.78v0.64h-2.05
		c-0.79,0.01-1.38,0.18-1.79,0.53c-0.41,0.34-0.61,0.76-0.61,1.27c0,0.54,0.23,0.97,0.7,1.32c0.44,0.35,1.08,0.53,1.9,0.54
		c0.5,0,0.89-0.05,1.18-0.15c0.29-0.1,0.5-0.25,0.64-0.46h0.03v0.54h1.48V57.2C58.59,56.46,58.31,55.93,57.76,55.63z M57.13,59.22
		c0,0.46-0.12,0.75-0.35,0.88c-0.26,0.13-0.69,0.19-1.32,0.18c-0.49,0-0.84-0.08-1.06-0.24c-0.22-0.14-0.33-0.32-0.33-0.53
		c-0.01-0.47,0.42-0.72,1.28-0.73h1.78V59.22z"/>
	<polygon class="st0" points="63.79,59.54 63.76,59.54 62.03,55.27 60.46,55.27 63.16,61.35 64.38,61.35 67.08,55.27 65.51,55.27 	
		"/>
	<path class="st0" d="M73.63,55.88c-0.58-0.45-1.29-0.68-2.13-0.69c-0.35,0-0.7,0.05-1.06,0.16c-0.36,0.11-0.69,0.28-0.99,0.52
		c-0.29,0.23-0.53,0.55-0.71,0.96c-0.18,0.4-0.28,0.9-0.28,1.5c0,0.62,0.11,1.13,0.32,1.52c0.19,0.41,0.45,0.72,0.76,0.95
		c0.16,0.11,0.33,0.2,0.52,0.28c0.17,0.09,0.35,0.15,0.54,0.21c0.37,0.09,0.75,0.14,1.13,0.14c1.02,0.01,1.9-0.32,2.65-0.98
		l-1.07-0.76c-0.47,0.39-1.01,0.59-1.61,0.59c-0.52,0-0.93-0.13-1.25-0.39c-0.34-0.25-0.51-0.62-0.51-1.11h4.59v-1.01
		C74.52,56.97,74.22,56.34,73.63,55.88z M69.94,57.77c0.03-0.47,0.18-0.83,0.46-1.08c0.28-0.23,0.65-0.35,1.09-0.35
		s0.81,0.12,1.1,0.35c0.29,0.24,0.44,0.6,0.46,1.08H69.94z"/>
	<path class="st0" d="M78.56,59.79v-6.98h-1.48v7.07c0,0.53,0.18,0.91,0.55,1.14c0.35,0.22,0.79,0.33,1.33,0.33h0.66v-1.15h-0.51
		C78.74,60.21,78.56,60.07,78.56,59.79z"/>
</g>
</svg>
